<svg width="195" height="210" viewBox="0 0 195 210" fill="none" xmlns="http://www.w3.org/2000/svg">
<rect width="194.765" height="209.404" fill="#E5E5E5"/>
<path d="M187.602 123.584C184.763 120.313 181.924 117.041 178.542 113.17C177.93 115.052 177.458 116.317 177.197 117.744C170.792 147.373 149.689 168.038 120.364 173.504C101.509 176.899 84.4338 172.98 67.8991 165.315C49.4201 156.696 36.6627 142.168 27.4048 124.183C22.653 114.915 21.3325 104.67 21.6402 94.0496C21.7783 91.2608 22.0215 88.5529 23.1049 85.4063C23.6313 86.8972 24.4553 88.4365 24.2988 89.9445C21.786 126.913 55.9028 162.411 96.0917 167.843C111.835 170.013 127.119 167.124 141.506 158.66C158.396 148.685 170.585 127.853 170.432 108.916C164.604 112.571 161.212 120.454 152.702 120.416C158.511 113.308 163.689 106.8 168.885 100.487C170.652 98.4095 173.015 97.5149 174.47 99.5398C179.588 106.376 184.425 113.358 189.07 120.372C189.403 120.81 188.826 121.994 188.704 122.805C188.634 123.113 188.074 123.405 187.602 123.584Z" fill="#424242"/>
<path fill-rule="evenodd" clip-rule="evenodd" d="M53.5 9.88899C43.458 12.607 33.817 20.57 29.285 29.888C26.886 34.821 26.561 36.649 26.592 45C26.621 52.552 27.073 55.483 28.796 59.291C31.806 65.944 40.146 74.436 46.888 77.715C51.821 80.114 53.649 80.439 62 80.408C69.552 80.379 72.483 79.927 76.291 78.204C82.944 75.194 91.436 66.854 94.715 60.112C97.101 55.204 97.444 53.309 97.444 45C97.444 36.691 97.101 34.796 94.715 29.888C91.403 23.078 82.864 14.736 76.291 11.889C71.053 9.61999 58.549 8.52299 53.5 9.88899ZM52.332 16.79C24.926 26.586 25.905 65.521 53.761 73.619C76.092 80.111 97.111 59.092 90.619 36.761C85.909 20.558 67.969 11.201 52.332 16.79Z" fill="#424242"/>
<path fill-rule="evenodd" clip-rule="evenodd" d="M76.0401 41.5225L55.2958 62.2873L46.482 53.5056C37.6094 44.666 34.7479 43.1835 34.0053 47.0401C33.6322 48.9796 53.0216 69 55.2735 69C56.0214 69 66.6113 59.0161 78.8069 46.8134C101.094 24.5126 103.28 21.6565 98.5605 21.004C97.2761 20.8264 91.0426 26.5056 76.0401 41.5225Z" fill="#CA7560"/>
</svg>
