<?xml version="1.0" standalone="no"?>
<!DOCTYPE svg PUBLIC "-//W3C//DTD SVG 20010904//EN"
 "http://www.w3.org/TR/2001/REC-SVG-20010904/DTD/svg10.dtd">
<svg version="1.0" xmlns="http://www.w3.org/2000/svg"
 width="702.000000pt" height="356.000000pt" viewBox="0 0 702.000000 356.000000"
 preserveAspectRatio="xMidYMid meet">

<g transform="translate(0.000000,356.000000) scale(0.100000,-0.100000)"
fill="#000000" stroke="none">
<path d="M1560 3020 c-47 -10 -148 -42 -225 -70 -230 -85 -305 -110 -405 -135
-98 -25 -369 -75 -522 -96 -49 -7 -88 -16 -88 -21 0 -11 -12 -12 206 22 268
41 474 90 654 156 332 121 395 138 505 138 115 1 180 -17 364 -96 373 -162
649 -334 731 -455 31 -46 32 -51 26 -123 -3 -41 -17 -128 -31 -192 -14 -65
-25 -129 -25 -142 0 -21 -7 -27 -40 -36 -21 -6 -46 -17 -54 -25 -10 -10 -25
-13 -48 -8 -57 11 -81 26 -133 82 l-50 53 0 87 c0 56 6 104 18 140 10 29 16
56 13 59 -3 3 -28 -15 -54 -40 -132 -123 -191 -99 -193 77 0 90 -10 95 -24 14
-3 -21 -15 -49 -27 -64 -19 -24 -27 -27 -64 -22 -46 5 -155 73 -148 92 7 16
-23 40 -91 75 -110 55 -126 33 -37 -53 118 -115 260 -214 447 -311 109 -56
140 -78 188 -129 95 -104 187 -227 194 -259 4 -22 3 -29 -5 -24 -7 4 -21 -12
-36 -42 -14 -27 -37 -63 -51 -80 -31 -37 -27 -49 19 -57 58 -11 106 24 106 77
0 30 20 17 63 -38 68 -90 69 -147 2 -191 -75 -49 -136 -25 -216 84 -22 29 -44
53 -49 53 -14 0 -12 -65 4 -132 8 -36 10 -58 3 -58 -14 0 -121 55 -181 94 -69
44 -163 141 -176 182 -22 66 -233 172 -361 182 -61 4 -73 1 -180 -43 -293
-123 -461 -162 -658 -152 -64 3 -149 13 -190 21 -67 15 -93 15 -79 1 9 -9 233
-55 343 -70 115 -17 203 -18 260 -5 22 5 41 7 43 6 10 -11 -15 -61 -50 -101
-70 -80 -254 -153 -473 -186 -87 -14 -103 -15 -302 -25 -254 -11 -195 -37 87
-38 180 -1 240 3 240 15 0 4 -55 6 -122 4 l-123 -4 161 24 c89 13 198 33 243
44 100 25 220 80 277 126 44 36 84 105 84 144 0 20 -4 22 -22 17 -40 -12 -201
-17 -248 -8 l-45 9 35 6 c19 3 81 13 138 21 97 15 224 57 420 140 123 53 222
44 371 -32 100 -51 118 -65 136 -109 33 -77 160 -181 316 -259 l77 -37 21 -73
c23 -78 83 -168 152 -227 35 -31 39 -39 39 -81 0 -39 -5 -53 -29 -76 -39 -39
-73 -46 -135 -27 -87 28 -181 140 -246 294 -12 29 -31 55 -41 58 -33 11 -149
137 -210 229 -49 74 -68 94 -119 124 -58 34 -101 75 -159 152 -30 40 -71 39
-85 -3 -10 -26 -5 -32 79 -115 50 -48 133 -132 185 -187 52 -55 143 -144 202
-198 158 -144 298 -330 298 -395 0 -26 -83 -82 -122 -82 -75 0 -200 65 -320
165 -40 33 -89 67 -108 74 -53 21 -172 113 -225 175 -31 36 -68 65 -109 85
-33 16 -90 56 -125 89 -64 57 -65 58 -102 48 -24 -6 -51 -6 -76 0 -33 8 -49 4
-120 -24 -86 -34 -236 -71 -290 -72 -17 0 -35 -5 -39 -12 -18 -29 259 29 363
77 44 20 57 22 87 13 24 -8 46 -8 68 -1 31 9 37 6 103 -50 39 -33 95 -71 125
-85 30 -14 64 -37 75 -51 59 -78 160 -160 240 -196 27 -13 77 -46 110 -74 201
-173 372 -219 459 -122 14 16 18 31 14 65 l-5 45 41 -23 c59 -34 113 -41 156
-19 47 24 80 76 80 126 0 36 -7 47 -76 119 -74 78 -115 147 -127 214 l-6 31
73 -5 c87 -5 129 6 187 53 54 42 68 69 68 125 1 57 -26 116 -88 194 -42 54
-51 74 -65 144 -9 45 -19 89 -22 97 -5 12 3 15 37 15 24 0 67 8 94 19 85 31
113 33 136 10 15 -15 19 -28 15 -47 -3 -15 -9 -57 -12 -94 -8 -81 6 -110 69
-139 58 -26 105 -24 150 6 74 51 85 115 35 213 -38 74 -33 91 33 109 45 12 88
10 172 -8 l47 -11 0 -101 c0 -113 12 -169 41 -198 25 -25 53 -24 90 4 45 32
137 32 173 -2 90 -84 25 -256 -90 -238 -18 3 -46 15 -62 27 -24 18 -32 19 -54
10 -14 -7 -35 -29 -47 -51 -25 -44 -40 -139 -22 -139 6 0 11 16 11 38 0 47 32
117 60 132 18 9 25 8 41 -6 24 -21 110 -30 147 -15 42 18 72 77 72 142 0 128
-105 184 -227 123 -28 -15 -59 -24 -68 -20 -31 12 -45 70 -45 189 l0 114 -58
17 c-82 23 -173 21 -222 -4 -49 -25 -50 -41 -10 -117 49 -92 35 -159 -41 -203
-34 -18 -44 -20 -79 -10 -22 6 -55 23 -72 39 -34 30 -36 40 -23 165 7 71 6 80
-10 92 -27 20 -86 17 -147 -6 -56 -21 -144 -28 -133 -10 3 5 23 13 44 16 l38
6 7 72 c3 39 15 109 27 156 32 135 36 208 11 256 -51 100 -257 246 -547 389
-228 113 -365 168 -468 189 -95 20 -130 19 -237 -4z m338 -577 c18 -14 31 -28
28 -31 -9 -8 59 -67 102 -88 54 -26 119 -25 142 3 l18 22 11 -44 c13 -51 41
-85 71 -85 25 0 73 24 117 58 l33 24 -8 -33 c-4 -19 -7 -70 -7 -114 l0 -80
-139 72 c-77 39 -178 98 -225 132 -98 69 -251 198 -251 211 0 13 69 -17 108
-47z m711 -524 c50 -10 51 -12 66 -62 9 -29 19 -74 22 -102 5 -40 14 -59 49
-98 87 -98 119 -208 77 -265 -31 -42 -94 -81 -145 -91 -49 -9 -135 2 -151 18
-9 9 -49 162 -44 168 2 1 26 -25 53 -60 57 -71 104 -95 169 -83 55 11 105 63
105 110 0 45 -36 117 -87 176 -27 30 -44 62 -52 97 -10 40 -28 71 -72 123 -32
39 -59 73 -59 75 0 7 14 6 69 -6z m56 -303 c-8 -37 -39 -66 -71 -66 -34 0 -36
13 -10 49 13 18 30 46 37 63 l13 31 18 -23 c14 -17 17 -32 13 -54z m-887 32
c23 -45 96 -114 158 -149 40 -23 63 -47 105 -111 61 -93 154 -197 204 -228 27
-16 65 -78 65 -105 0 -7 -191 179 -401 390 -109 110 -199 205 -199 211 0 37
47 31 68 -8z"/>
<path d="M5191 2599 c-120 -14 -209 -64 -396 -220 -55 -46 -131 -106 -170
-134 -38 -27 -92 -71 -118 -97 -26 -26 -53 -48 -58 -48 -21 0 -69 34 -69 49 0
8 12 29 26 48 14 19 23 37 19 41 -4 4 -10 1 -12 -6 -3 -7 -11 -19 -19 -27 -8
-7 -17 -27 -20 -44 -6 -29 -1 -38 49 -74 15 -10 16 -17 8 -40 -16 -41 -13 -99
4 -124 9 -13 35 -28 58 -34 23 -6 48 -13 56 -15 9 -3 -1 -13 -25 -26 -43 -23
-76 -47 -131 -93 -45 -40 -47 -83 -6 -157 55 -98 153 -152 296 -164 l78 -7 -6
-49 c-13 -92 -18 -103 -54 -106 -18 -2 -40 -1 -48 3 -14 5 -12 9 7 30 13 14
21 27 19 30 -28 27 -451 30 -698 5 -76 -8 -107 -8 -115 0 -20 20 -11 124 13
164 29 47 57 53 105 25 46 -27 114 -29 150 -6 68 45 103 178 62 239 -32 48
-148 77 -176 43 -21 -25 -103 -20 -137 9 -26 23 -28 29 -28 103 0 43 7 95 14
116 l13 38 63 -6 c123 -14 265 29 273 81 2 11 -11 46 -28 78 -16 32 -30 65
-30 73 0 27 31 73 60 88 34 18 109 20 143 4 29 -13 57 -58 57 -93 0 -14 5 -26
10 -26 15 0 12 47 -5 81 -45 87 -190 94 -254 13 -29 -37 -27 -92 6 -158 14
-29 23 -61 20 -69 -3 -9 -37 -25 -74 -37 -54 -17 -87 -21 -162 -18 l-95 3 -14
-45 c-18 -57 -20 -188 -4 -217 29 -53 141 -73 178 -32 21 23 63 20 117 -8 71
-36 70 -149 -1 -225 -39 -42 -83 -46 -148 -13 -48 24 -57 26 -84 15 -42 -17
-70 -81 -70 -156 0 -90 7 -96 110 -84 166 19 464 29 578 21 62 -5 115 -10 117
-13 2 -2 -4 -13 -13 -25 -13 -16 -35 -25 -86 -33 -129 -20 -164 -56 -125 -131
12 -24 24 -39 26 -32 2 6 -3 25 -11 42 -9 16 -16 37 -16 46 0 18 64 49 124 60
38 6 38 6 32 -19 -8 -33 1 -33 26 0 19 24 24 25 83 19 l63 -7 11 51 c6 28 14
68 17 90 6 37 8 39 53 44 129 16 209 18 251 7 48 -12 120 -54 120 -70 0 -5
-39 -28 -87 -52 -63 -30 -106 -60 -152 -105 -40 -40 -88 -75 -130 -95 -78 -38
-76 -36 -68 -44 3 -3 30 5 60 19 l54 25 -5 -44 c-4 -36 0 -50 22 -79 25 -32
31 -35 81 -35 45 0 69 8 142 46 48 25 125 56 171 70 46 13 102 34 125 46 32
17 56 21 98 19 31 -1 60 2 63 8 4 5 -8 27 -26 47 l-33 38 35 -20 c19 -10 83
-67 142 -125 111 -109 146 -125 59 -28 -106 119 -361 296 -361 250 0 -5 9 -12
19 -16 26 -8 142 -128 133 -137 -4 -4 -25 -3 -46 2 -34 7 -46 5 -91 -21 -28
-16 -86 -38 -129 -49 -43 -11 -103 -35 -134 -54 -80 -48 -165 -71 -202 -56
-41 17 -66 72 -50 111 31 73 237 201 369 230 151 32 274 141 355 313 44 92 53
136 65 292 11 135 34 231 78 317 13 27 22 54 20 60 -7 20 -67 -111 -87 -189
-11 -41 -24 -130 -30 -198 -6 -68 -17 -150 -26 -183 -31 -119 -144 -279 -241
-341 -26 -17 -90 -42 -142 -57 -51 -14 -124 -42 -162 -61 -38 -19 -69 -30 -69
-25 0 4 19 16 43 25 59 22 167 87 167 100 0 12 -44 42 -105 72 -45 21 -138 25
-264 10 l-74 -8 7 58 c4 33 10 138 12 234 l4 175 71 3 c54 2 104 -5 221 -34
140 -34 158 -36 271 -32 107 3 128 7 166 28 25 14 46 30 48 36 2 6 -17 42 -43
79 -26 38 -53 89 -61 114 -12 40 -12 52 2 98 16 50 14 79 -5 68 -4 -3 -11 -23
-15 -44 -4 -22 -17 -49 -32 -62 -22 -22 -34 -24 -117 -24 -104 0 -142 16 -151
63 -17 82 -23 88 -24 25 -1 -34 -5 -72 -10 -85 -18 -45 -70 -85 -154 -117 -99
-37 -103 -37 -111 -8 -6 21 -7 21 -32 -10 -14 -18 -29 -33 -33 -33 -4 0 -15
26 -24 58 -25 88 -22 86 -117 68 -45 -9 -105 -16 -133 -16 l-51 0 44 45 c25
25 79 69 120 97 41 29 104 78 140 110 167 147 290 221 395 236 45 7 908 9 935
2 3 0 -19 -11 -49 -23 -30 -13 -56 -28 -59 -35 -2 -7 18 -2 50 12 29 13 68 27
86 31 72 15 18 40 -88 39 -36 0 -182 -1 -325 -3 -143 -2 -305 -1 -360 2 -55 3
-133 1 -174 -4z m0 -453 c72 -30 180 -30 250 -2 13 6 18 -1 23 -33 3 -23 26
-69 56 -112 45 -68 48 -75 33 -91 -45 -50 -292 -50 -487 1 -81 21 -144 31
-193 31 -40 0 -73 4 -73 8 0 22 48 49 78 44 41 -6 150 32 202 69 22 16 48 45
57 64 9 19 18 35 19 35 1 0 17 -6 35 -14z m-438 -93 c32 -100 32 -97 -26 -129
-46 -26 -62 -29 -139 -29 -72 0 -91 3 -115 21 -32 24 -42 78 -23 124 11 26 15
27 103 34 51 4 108 11 127 15 56 14 58 13 73 -36z m33 -335 c-3 -106 -9 -210
-12 -232 l-7 -39 -76 6 c-42 3 -99 13 -128 21 -106 33 -211 169 -183 237 7 15
19 34 26 40 12 10 14 3 8 -45 -5 -41 -2 -67 10 -100 25 -66 45 -78 129 -84 94
-6 108 7 76 67 -18 35 -21 54 -18 124 l4 82 -57 3 c-95 5 -75 21 97 78 152 51
139 67 131 -158z m-194 -18 c-4 -67 -1 -85 17 -115 12 -20 21 -38 21 -41 0
-10 -117 -3 -140 9 -53 26 -75 121 -46 192 l15 35 68 0 68 0 -3 -80z"/>
<path d="M6132 2509 c-53 -9 -98 -27 -89 -35 2 -2 33 2 68 11 125 29 115 36
219 -140 50 -86 135 -247 189 -359 105 -216 153 -295 221 -363 61 -62 71 -53
13 11 -76 83 -120 155 -213 351 -47 99 -132 260 -189 358 -116 199 -99 186
-219 166z"/>
<path d="M5929 2481 c-13 -11 -19 -20 -13 -21 15 0 50 27 43 34 -3 4 -17 -2
-30 -13z"/>
<path d="M5990 2460 c-8 -5 -12 -12 -9 -15 8 -8 39 5 39 16 0 11 -11 11 -30
-1z"/>
<path d="M5906 2394 c-14 -15 -26 -31 -26 -37 0 -6 16 4 35 23 19 19 35 35 35
37 0 10 -21 -1 -44 -23z"/>
<path d="M5827 2382 c-21 -24 -24 -50 -3 -33 12 10 29 51 22 51 -2 0 -10 -8
-19 -18z"/>
<path d="M5846 2314 c-9 -24 -7 -28 9 -14 17 14 20 30 6 30 -5 0 -12 -7 -15
-16z"/>
<path d="M5818 2265 c-43 -70 -60 -337 -35 -525 37 -267 172 -644 301 -839 67
-100 230 -251 491 -454 55 -43 101 -82 103 -87 2 -4 -14 -4 -35 0 -21 5 -72 6
-113 3 -88 -6 -159 14 -262 74 -120 70 -209 174 -383 450 -22 35 -46 63 -52
63 -7 0 -1 -18 16 -42 16 -24 67 -101 114 -173 130 -197 252 -309 397 -364 54
-20 84 -24 185 -25 109 -1 126 -4 183 -30 34 -16 65 -27 67 -24 3 3 -39 38
-92 79 -263 199 -422 335 -535 457 -65 70 -87 104 -146 225 -118 239 -189 467
-228 732 -20 135 -14 288 16 394 19 67 23 110 8 86z"/>
<path d="M3074 1417 c-82 -31 -124 -96 -102 -158 6 -16 8 -32 5 -35 -3 -3 -58
0 -122 6 -65 6 -119 9 -120 8 -1 -2 -5 -38 -7 -80 l-5 -77 31 -11 c17 -7 67
-14 112 -17 94 -6 147 7 171 43 15 23 14 37 -2 77 -6 15 1 17 74 17 l82 0 15
-35 c8 -19 24 -41 37 -49 72 -46 245 -70 310 -43 43 18 46 36 16 79 -12 16
-20 30 -18 32 2 2 57 8 122 14 89 9 144 20 225 48 62 21 135 39 173 42 64 4
66 4 111 -36 l46 -39 -24 -39 c-37 -61 -26 -149 28 -215 48 -58 164 -47 215
20 29 38 10 40 -27 2 -36 -37 -45 -41 -89 -41 -63 0 -94 24 -121 96 l-21 56
26 55 c14 31 25 61 25 68 0 22 -78 84 -114 91 -48 9 -115 -2 -200 -33 -100
-37 -175 -52 -297 -59 l-106 -7 -11 32 c-14 39 -26 41 -19 2 7 -35 -6 -42 -71
-37 -23 2 -45 -1 -48 -5 -3 -5 27 -9 66 -9 67 0 72 -2 100 -32 16 -18 30 -39
30 -46 1 -60 -306 -25 -340 39 -19 34 -11 39 60 39 40 0 70 4 70 10 0 6 -26
10 -59 10 l-58 0 19 39 c18 37 18 41 3 77 -21 51 -42 73 -90 95 -46 21 -58 22
-101 6z m94 -21 c43 -23 82 -70 88 -107 5 -28 1 -39 -23 -61 -28 -26 -30 -26
-123 -20 l-95 7 -19 39 c-19 39 -19 40 0 75 20 38 85 81 122 81 13 0 35 -6 50
-14z m-246 -192 c66 -6 80 -10 93 -30 48 -74 -36 -124 -174 -103 -95 15 -97
16 -93 89 l4 62 46 -6 c26 -3 82 -8 124 -12z"/>
<path d="M4560 1161 c0 -11 5 -23 10 -26 6 -4 10 5 10 19 0 14 -4 26 -10 26
-5 0 -10 -9 -10 -19z"/>
<path d="M4600 1105 c0 -2 14 -11 30 -20 17 -9 30 -12 30 -7 0 5 -11 14 -25
20 -28 13 -35 14 -35 7z"/>
<path d="M4690 1076 c0 -10 28 -13 41 -5 10 6 7 9 -13 9 -16 0 -28 -2 -28 -4z"/>
<path d="M5810 975 c0 -8 4 -15 10 -15 5 0 7 7 4 15 -4 8 -8 15 -10 15 -2 0
-4 -7 -4 -15z"/>
</g>
</svg>
